<svg width="73" height="66" viewBox="0 0 73 66" fill="none" xmlns="http://www.w3.org/2000/svg">
<path d="M0.890625 11.1562C0.890625 9.8125 0.953125 8.5 1.07812 7.21875C1.23438 5.9375 1.5625 4.79688 2.0625 3.79688C2.59375 2.76562 3.375 1.9375 4.40625 1.3125C5.4375 0.6875 6.85938 0.375 8.67188 0.375C10.4844 0.375 11.9062 0.6875 12.9375 1.3125C13.9688 1.9375 14.7344 2.76562 15.2344 3.79688C15.7656 4.79688 16.0938 5.9375 16.2188 7.21875C16.375 8.5 16.4531 9.8125 16.4531 11.1562V55.2188C16.4531 56.5938 16.3906 57.9219 16.2656 59.2031C16.1406 60.4844 15.8125 61.6406 15.2812 62.6719C14.7812 63.6719 14 64.4844 12.9375 65.1094C11.9062 65.7031 10.4844 66 8.67188 66C6.85938 66 5.4375 65.7031 4.40625 65.1094C3.375 64.4844 2.59375 63.6719 2.0625 62.6719C1.5625 61.6406 1.23438 60.4844 1.07812 59.2031C0.953125 57.9219 0.890625 56.5938 0.890625 55.2188V11.1562ZM42.7031 37.6875H57.6094L50.6719 12.5625H49.6406L42.7031 37.6875ZM72.1406 42.2812C72.2031 44.4062 72.2812 46.5781 72.375 48.7969C72.4688 51.0156 72.5156 53.1562 72.5156 55.2188V56.625C72.5156 57.8125 72.4688 58.9688 72.375 60.0938C72.3125 61.1875 72.0781 62.1875 71.6719 63.0938C71.2656 63.9688 70.625 64.6719 69.75 65.2031C68.875 65.7344 67.6406 66 66.0469 66C64.4219 66 63.1719 65.7344 62.2969 65.2031C61.4219 64.6719 60.7656 63.9688 60.3281 63.0938C59.9219 62.2188 59.6719 61.2188 59.5781 60.0938C59.5156 58.9688 59.4844 57.8125 59.4844 56.625V50.0625H40.7344V56.625C40.7344 57.8125 40.6875 58.9688 40.5938 60.0938C40.5312 61.2188 40.2812 62.2188 39.8438 63.0938C39.4375 63.9688 38.7969 64.6719 37.9219 65.2031C37.0469 65.7344 35.7969 66 34.1719 66C32.5469 66 31.2969 65.7344 30.4219 65.2031C29.5469 64.6719 28.9062 63.9688 28.5 63.0938C28.0938 62.1875 27.8594 61.1875 27.7969 60.0938C27.7344 58.9688 27.7031 57.8125 27.7031 56.625V55.2188C27.7031 54.25 27.7031 53.2188 27.7031 52.125C27.7344 51.0312 27.7656 49.9219 27.7969 48.7969C27.8281 47.6719 27.8594 46.5625 27.8906 45.4688C27.9219 44.3438 27.9531 43.2812 27.9844 42.2812C29.5469 36.8438 31.1875 31.3438 32.9062 25.7812C34.625 20.1875 36.2656 14.6562 37.8281 9.1875C38.1406 8.03125 38.5156 6.92188 38.9531 5.85938C39.3906 4.76562 39.9688 3.82812 40.6875 3.04688C41.4062 2.23438 42.3281 1.59375 43.4531 1.125C44.5781 0.625 46.0156 0.375 47.7656 0.375H52.4531C54.1719 0.375 55.5938 0.625 56.7188 1.125C57.875 1.59375 58.8125 2.23438 59.5312 3.04688C60.25 3.82812 60.8125 4.76562 61.2188 5.85938C61.6562 6.92188 62.0469 8.03125 62.3906 9.1875L72.1406 42.2812Z" fill="#14110F"/>
</svg>
